<svg xmlns="http://www.w3.org/2000/svg" viewBox="0 0 100 100">
  <defs>
    <linearGradient id="goldGradient" x1="0%" y1="0%" x2="100%" y2="100%">
      <stop offset="0%" style="stop-color:#D4AF37;stop-opacity:1" />
      <stop offset="100%" style="stop-color:#FFD700;stop-opacity:1" />
    </linearGradient>
  </defs>
  
  <!-- Background circle -->
  <circle cx="50" cy="50" r="48" fill="#1a1a2e" stroke="url(#goldGradient)" stroke-width="2"/>
  
  <!-- Hotel building -->
  <rect x="30" y="35" width="40" height="45" fill="url(#goldGradient)" rx="2"/>
  
  <!-- Windows -->
  <rect x="35" y="40" width="6" height="6" fill="#1a1a2e" rx="1"/>
  <rect x="47" y="40" width="6" height="6" fill="#1a1a2e" rx="1"/>
  <rect x="59" y="40" width="6" height="6" fill="#1a1a2e" rx="1"/>
  
  <rect x="35" y="50" width="6" height="6" fill="#1a1a2e" rx="1"/>
  <rect x="47" y="50" width="6" height="6" fill="#1a1a2e" rx="1"/>
  <rect x="59" y="50" width="6" height="6" fill="#1a1a2e" rx="1"/>
  
  <rect x="35" y="60" width="6" height="6" fill="#1a1a2e" rx="1"/>
  <rect x="47" y="60" width="6" height="6" fill="#1a1a2e" rx="1"/>
  <rect x="59" y="60" width="6" height="6" fill="#1a1a2e" rx="1"/>
  
  <!-- Door -->
  <rect x="44" y="70" width="12" height="10" fill="#1a1a2e" rx="1"/>
  
  <!-- Star -->
  <polygon points="50,20 52,26 58,26 53,30 55,36 50,32 45,36 47,30 42,26 48,26" fill="#FFD700"/>
</svg>
